<?xml version="1.0" encoding="UTF-8"?>
<svg width="640px" height="517px" viewBox="0 0 640 517" version="1.1" xmlns="http://www.w3.org/2000/svg" xmlns:xlink="http://www.w3.org/1999/xlink">
    <!-- Generator: Sketch 41 (35326) - http://www.bohemiancoding.com/sketch -->
    <title>Page 1</title>
    <desc>Created with Sketch.</desc>
    <defs>
        <polygon id="path-1" points="0.767921875 0.00507074289 0.767921875 138.450852 58.9400781 138.450852 58.9400781 0.00507074289"></polygon>
        <polygon id="path-3" points="0.0694039154 0.624311073 0.0694039154 110.757509 25.1075773 110.757509 25.1075773 0.624311073 0.0694039154 0.624311073"></polygon>
        <polygon id="path-5" points="79.463 247.4564 79.463 0.8554 0.3578 0.8554 0.3578 247.4564 79.463 247.4564"></polygon>
        <polygon id="path-7" points="38.8318937 0.781625 0.26414375 0.781625 0.26414375 39.3491312 38.8318937 39.3491312 38.8318937 0.781625"></polygon>
    </defs>
    <g id="Page-1" stroke="none" stroke-width="1" fill="none" fill-rule="evenodd">
        <g id="没有缓存-copy-6" transform="translate(0.000000, -142.000000)">
            <g id="Page-1" transform="translate(-1.000000, 141.000000)">
                <g id="Group-7" transform="translate(0.000000, 98.733313)">
                    <g id="Group-3">
                        <mask id="mask-2" fill="white">
                            <use xlink:href="#path-1"></use>
                        </mask>
                        <g id="Clip-2"></g>
                        <path d="M-10.170125,138.450852 C-48.2785937,138.450852 -79.28125,107.397852 -79.28125,69.2274999 C-79.28125,31.0580713 -48.2785937,0.00507074289 -10.170125,0.00507074289 C27.9374219,0.00507074289 58.9400781,31.0580713 58.9400781,69.2274999 C58.9400781,107.397852 27.9374219,138.450852 -10.170125,138.450852" id="Fill-1" fill="#3CE5A4" mask="url(#mask-2)"></path>
                    </g>
                    <g id="Group-6" transform="translate(1.000000, 113.000000)">
                        <mask id="mask-4" fill="white">
                            <use xlink:href="#path-3"></use>
                        </mask>
                        <g id="Clip-5"></g>
                        <path d="M-29.9583796,110.757509 C-60.3227751,110.757509 -85.0256204,86.0546635 -85.0256204,55.690268 C-85.0256204,25.3271564 -60.3227751,0.624311073 -29.9583796,0.624311073 C0.40473201,0.624311073 25.1075773,25.3271564 25.1075773,55.690268 C25.1075773,86.0546635 0.40473201,110.757509 -29.9583796,110.757509" id="Fill-4" fill="#FFE048" mask="url(#mask-4)"></path>
                    </g>
                </g>
                <g id="Group-10" transform="translate(561.000000, 278.038000)">
                    <mask id="mask-6" fill="white">
                        <use xlink:href="#path-5"></use>
                    </mask>
                    <g id="Clip-9"></g>
                    <path d="M123.6568,61.0194 C88.8448,61.0194 60.5218,89.3424 60.5218,124.1574 C60.5218,158.9694 88.8448,187.2924 123.6568,187.2924 C158.4718,187.2924 186.7948,158.9694 186.7948,124.1574 C186.7948,89.3424 158.4718,61.0194 123.6568,61.0194 M123.6568,247.4564 C55.6688,247.4564 0.3578,192.1454 0.3578,124.1574 C0.3578,56.1694 55.6688,0.8554 123.6568,0.8554 C191.6448,0.8554 246.9588,56.1694 246.9588,124.1574 C246.9588,192.1454 191.6448,247.4564 123.6568,247.4564" id="Fill-8" fill="#81EEFF" mask="url(#mask-6)"></path>
                </g>
                <g id="Group-13" transform="translate(378.000000, 0.225500)">
                    <mask id="mask-8" fill="white">
                        <use xlink:href="#path-7"></use>
                    </mask>
                    <g id="Clip-12"></g>
                    <path d="M19.5480187,10.1909437 C14.1034562,10.1909437 9.67370625,14.6206937 9.67370625,20.0652562 C9.67370625,25.5098187 14.1034562,29.9395687 19.5480187,29.9395687 C24.9933937,29.9395687 29.4223312,25.5098187 29.4223312,20.0652562 C29.4223312,14.6206937 24.9933937,10.1909437 19.5480187,10.1909437 M19.5480187,39.3491312 C8.91483125,39.3491312 0.26414375,30.6984437 0.26414375,20.0652562 C0.26414375,9.43206875 8.91483125,0.78138125 19.5480187,0.78138125 C30.1812062,0.78138125 38.8318937,9.43206875 38.8318937,20.0652562 C38.8318937,30.6984437 30.1812062,39.3491312 19.5480187,39.3491312" id="Fill-11" fill="#FFDE00" mask="url(#mask-8)"></path>
                </g>
            </g>
        </g>
    </g>
</svg>